<svg xmlns="http://www.w3.org/2000/svg" width="128" height="128" viewBox="0 0 128 128"><title>王者荣耀应用图标</title><desc>深蓝圆角底和金色王冠盾徽，游戏内自绘简化图标。</desc><defs><linearGradient id="gold" x1="0" y1="0" x2="0" y2="1"><stop stop-color="#e6cd88"/><stop offset="1" stop-color="#af8951"/></linearGradient></defs><rect x="3" y="3" width="122" height="122" rx="28" fill="#253a50"/><path d="M64 20l34 14v31q0 26-34 44Q30 91 30 65V34Z" fill="#1a2c3f" stroke="url(#gold)" stroke-width="4"/><path d="M35 49l17 13 12-23 12 23 17-13-8 34H43Z" fill="url(#gold)"/><path d="M46 91h36M64 28v6" stroke="#e6cd88" stroke-width="3"/><path d="M17 60l9 11-4 15 12-3M111 60l-9 11 4 15-12-3" fill="none" stroke="#b99a62" stroke-width="3"/><path d="M61 68h6v10h-6Z" fill="#24384a"/></svg>
